<svg xmlns="http://www.w3.org/2000/svg" fill="none" viewBox="0 0 200 200" stroke-width=".75" height="400" width="400"><g id="Users-People-Trophy-Awards-01"><g id="color 2"><path id="Vector" fill="#ff3e13" d="M95.193 85.522C88.942 88.714 80.069 100.57 80.069 100.57L69.258 87.8C64.4641 89.3195 60.3943 92.5449 57.82 96.865L72.355 113.338C73.9345 115.124 76.099 116.289 78.4599 116.624C80.8209 116.958 83.2237 116.44 85.237 115.162L103.537 103.515L94.075 112.521L90.921 155.005C95.7696 156.842 101.135 156.768 105.931 154.796L110.092 89.854C106.84 91.792 98.556 89 95.193 85.522Z"></path><path id="Vector_2" fill="#ff3e13" d="M106.574 77.675C105.992 77.675 105.422 77.8478 104.938 78.1714C104.454 78.495 104.076 78.9549 103.853 79.493C103.63 80.0312 103.572 80.6233 103.686 81.1946C103.799 81.7659 104.08 82.2906 104.492 82.7025C104.903 83.1143 105.428 83.3948 105.999 83.5085C106.571 83.6221 107.163 83.5638 107.701 83.3409C108.239 83.118 108.699 82.7405 109.023 82.2562C109.346 81.7719 109.519 81.2025 109.519 80.62C109.518 79.8392 109.208 79.0906 108.656 78.5385C108.103 77.9864 107.355 77.6758 106.574 77.675Z"></path><path id="Vector_3" fill="#ff3e13" d="M130.324 144.289C130.322 146.717 131.171 149.068 132.722 150.936C134.274 152.803 136.43 154.068 138.817 154.511V177.254H142.636V154.511C145.022 154.066 147.177 152.8 148.728 150.934C150.279 149.067 151.129 146.716 151.129 144.289H130.324ZM140.717 151.547C140.33 151.547 139.952 151.432 139.63 151.217C139.308 151.002 139.057 150.697 138.909 150.339C138.761 149.981 138.722 149.588 138.798 149.208C138.873 148.829 139.059 148.48 139.333 148.206C139.607 147.933 139.956 147.746 140.335 147.671C140.715 147.595 141.108 147.634 141.466 147.782C141.823 147.93 142.129 148.181 142.344 148.503C142.559 148.825 142.674 149.203 142.674 149.59C142.674 149.847 142.624 150.102 142.526 150.339C142.428 150.577 142.283 150.793 142.102 150.975C141.92 151.157 141.704 151.301 141.466 151.399C141.229 151.497 140.974 151.547 140.717 151.547Z"></path><path id="Vector_4" fill="#ff3e13" d="M62.171 177.2C62.2676 176.002 62.6593 174.847 63.311 173.837C65.893 169.98 67.871 166.737 67.871 157.402H54.59C54.59 166.102 56.253 169.202 59.055 173.666C59.7657 174.719 60.1972 175.935 60.309 177.2C60.233 180.259 59.909 181.342 56.87 182.406H65.61C62.589 181.339 62.209 180.256 62.171 177.2ZM58.865 167.339L59.701 164.565L57.383 162.817L60.29 162.76L61.24 160.024L62.19 162.76L65.097 162.817L62.779 164.565L63.615 167.339L61.24 165.686L58.865 167.339Z"></path></g><g id="color 1"><path id="Vector_5" fill="#1f00f3" d="M103.515 103.515L94.053 112.521L94.281 109.386L103.515 103.515Z"></path><path id="Vector_6" fill="#1f00f3" d="M104.6 170.87C103.446 165.859 103.15 160.689 103.724 155.579C100.457 156.482 97.017 156.559 93.713 155.803C93.9384 158.184 93.6601 160.586 92.896 162.852C94.226 164.384 96.926 165.094 97.475 170.889C97.5556 171.697 97.932 172.446 98.5317 172.993C99.1314 173.54 99.9122 173.847 100.724 173.853H110.889C110.111 172.94 109.148 172.202 108.064 171.688C106.98 171.174 105.799 170.895 104.6 170.87Z"></path><path id="Vector_7" fill="#1f00f3" d="M61.2 80.886C53.771 79.651 42.276 79.1 37.944 80.886C42.0603 83.7984 46.4982 86.2274 51.17 88.125C52.941 88.6051 54.5619 89.5253 55.882 90.8L59.359 94.714C61.4888 91.9222 64.3211 89.7455 67.567 88.406L61.2 80.886Z"></path><path id="Vector_8" fill="#1f00f3" d="M104.218 61.449L105.662 63.102C105.711 62.7232 105.811 62.353 105.962 62.002C105.364 61.8738 104.78 61.6887 104.218 61.449Z"></path><path id="Vector_9" fill="#1f00f3" d="M98.4 49.916C93.236 55.388 101.387 60.157 102 60.5C101.979 58.9517 101.833 57.4076 101.563 55.883C99.473 55.183 100.442 52.71 101.848 53.683C102.292 54.037 102.755 54.247 102.836 53.683C103.425 50.111 106.142 49.161 107.852 52.467C105.529 47.769 102.426 46.082 98.4 49.916Z"></path><path id="Vector_10" fill="#1f00f3" d="M98.841 43.323C98.2374 42.8237 97.501 42.5117 96.7225 42.4255C95.9439 42.3393 95.1571 42.4826 94.4589 42.8378C93.7607 43.193 93.1816 43.7446 92.7929 44.4247C92.4042 45.1047 92.2228 45.8836 92.271 46.6655C92.3192 47.4473 92.595 48.198 93.0644 48.8251C93.5337 49.4523 94.1762 49.9285 94.9128 50.1952C95.6493 50.4618 96.4478 50.5074 97.2098 50.3261C97.9719 50.1449 98.6644 49.7448 99.202 49.175C99.9029 48.3391 100.256 47.2659 100.189 46.177C100.122 45.0881 99.6394 44.0665 98.841 43.323Z"></path><path id="Vector_11" fill="#1f00f3" d="M82.444 71.063C82.273 72.773 82.615 74.163 83.451 74.445C84.439 74.768 85.56 73.894 86.586 72.507C85.256 72.089 83.869 71.614 82.444 71.063Z"></path><path id="Vector_12" fill="#1f00f3" d="M95.022 78.207L93.863 79.822C93.635 79.138 93.369 78.416 93.063 77.637C93.749 77.827 94.414 78.017 95.022 78.207Z"></path><path id="Vector_13" fill="#1f00f3" d="M107.847 8.76197V31.847C123.104 37.395 138.361 26.299 153.618 31.847V8.76197C138.361 3.21397 123.1 14.31 107.847 8.76197Z"></path></g><g id="outlines"><path id="Vector_14" stroke="#141414" stroke-linecap="round" stroke-linejoin="round" d="M153.618 51.189V66.389"></path><path id="Vector_15" stroke="#141414" stroke-linecap="round" stroke-linejoin="round" d="M153.618 5V40.302"></path><path id="Vector_16" stroke="#141414" stroke-linecap="round" stroke-linejoin="round" d="M109.101 64.394L106.574 77.675L97.4919 64.717"></path><path id="Vector_17" stroke="#141414" stroke-linecap="round" stroke-linejoin="round" d="M95.193 85.522C88.942 88.714 80.069 100.57 80.069 100.57L69.258 87.8C64.4641 89.3195 60.3943 92.5449 57.82 96.865L72.32 113.338C73.8994 115.124 76.0635 116.288 78.424 116.623C80.7845 116.957 83.1869 116.439 85.2 115.162L94.282 109.386L90.9 155.005C95.7592 156.827 101.127 156.745 105.929 154.777L110.09 89.854"></path><path id="Vector_18" stroke="#141414" stroke-linecap="round" stroke-linejoin="round" d="M103.515 103.515L94.053 112.521L94.281 109.386L103.515 103.515Z"></path><path id="Vector_19" stroke="#141414" stroke-linecap="round" stroke-linejoin="round" d="M112.122 175.857C111.828 175.125 111.41 174.448 110.887 173.857H100.741C99.9303 173.847 99.1516 173.54 98.5526 172.993C97.9537 172.447 97.5762 171.699 97.492 170.893C97.3633 168.797 96.6308 166.782 95.383 165.093C94.926 164.543 93.559 163.573 92.913 162.851C91.982 166.1 92.737 165.895 93.749 167.107C95.002 168.785 95.7353 170.793 95.858 172.883C95.9314 173.691 96.3027 174.443 96.8997 174.992C97.4967 175.542 98.2767 175.85 99.088 175.856L112.122 175.857Z"></path><path id="Vector_20" stroke="#141414" stroke-linecap="round" stroke-linejoin="round" d="M103.722 155.579C103.151 160.683 103.447 165.846 104.598 170.851C105.794 170.874 106.972 171.151 108.053 171.664C109.134 172.177 110.093 172.913 110.868 173.825H100.722C99.9108 173.822 99.1296 173.518 98.5295 172.972C97.9293 172.426 97.5529 171.677 97.473 170.87C97.356 168.771 96.6223 166.754 95.364 165.07C94.895 164.513 93.521 163.55 92.894 162.828C92.989 162.505 93.084 162.163 93.217 161.764C93.7148 159.825 93.8838 157.816 93.717 155.821"></path><path id="Vector_21" stroke="#141414" stroke-linecap="round" stroke-linejoin="round" d="M67.567 88.41L61.2 80.886C53.771 79.651 42.276 79.1 37.944 80.886C42.062 83.7958 46.4995 86.2246 51.17 88.125C52.9416 88.6037 54.5629 89.5241 55.882 90.8L59.359 94.714"></path><path id="Vector_22" stroke="#141414" stroke-linecap="round" stroke-linejoin="round" d="M37.946 80.886C37.11 80.297 36.293 79.686 35.514 79.062C39.714 77.048 51.93 77.447 59.473 78.834L61.2 80.886"></path><path id="Vector_23" stroke="#141414" stroke-linecap="round" stroke-linejoin="round" d="M105.662 63.1L104.2 61.449C104.772 61.6843 105.363 61.8686 105.967 62"></path><path id="Vector_24" stroke="#141414" stroke-linecap="round" stroke-linejoin="round" d="M50.828 53.2C50.79 53.257 49.128 52.027 47.123 50.5C44.877 48.8 45.089 47.708 48.016 49.265C49.4599 50.1243 51.041 50.7284 52.69 51.051"></path><path id="Vector_25" stroke="#141414" stroke-linecap="round" stroke-linejoin="round" d="M53.849 49.517C53.849 49.517 48.849 45.964 48.529 45.717C46.192 43.931 45.494 44.725 47.275 46.724C48.913 48.563 51.132 50.676 51.132 50.676"></path><path id="Vector_26" stroke="#141414" stroke-linecap="round" stroke-linejoin="round" d="M88.182 62.361C75.87 58.01 62.645 51.761 62.551 51.721C61.534 51.288 60.499 49.992 60.689 49.021C61.013 47.368 61.735 45.008 60.898 44.841C59.626 44.588 58.865 48.147 57.668 48.964C57.25 49.249 56.054 48.374 55.635 47.976C54.935 47.309 52.558 45.068 52.329 44.841C50.229 42.76 49.529 43.686 51.056 45.677C51.8506 46.6747 52.5149 47.7695 53.033 48.935"></path><path id="Vector_27" stroke="#141414" stroke-linecap="round" stroke-linejoin="round" d="M54.742 48.567C53.157 50.0156 52.1286 51.973 51.835 54.1"></path><path id="Vector_28" stroke="#141414" stroke-linecap="round" stroke-linejoin="round" d="M55.673 50.2C55.027 52.575 55.445 54.532 57.459 55.748"></path><path id="Vector_29" stroke="#141414" stroke-linecap="round" stroke-linejoin="round" d="M114.649 73.381C114.797 74.4828 114.835 75.5966 114.763 76.706"></path><path id="Vector_30" stroke="#141414" stroke-linecap="round" stroke-linejoin="round" d="M101.976 60.518C97.169 57.818 94.554 53.588 99.202 49.156C103.268 45.679 106.327 49.327 107.847 52.462"></path><path id="Vector_31" stroke="#141414" stroke-linecap="round" stroke-linejoin="round" d="M98.841 43.323C98.2374 42.8237 97.501 42.5117 96.7225 42.4255C95.9439 42.3393 95.1571 42.4826 94.4589 42.8378C93.7607 43.193 93.1816 43.7446 92.7929 44.4247C92.4042 45.1047 92.2228 45.8836 92.271 46.6655C92.3192 47.4473 92.595 48.198 93.0644 48.8251C93.5337 49.4523 94.1762 49.9285 94.9128 50.1952C95.6493 50.4618 96.4478 50.5074 97.2098 50.3261C97.9719 50.1449 98.6644 49.7448 99.202 49.175C99.9029 48.3391 100.256 47.2659 100.189 46.177C100.122 45.0881 99.6394 44.0665 98.841 43.323V43.323Z"></path><path id="Vector_32" stroke="#141414" stroke-linecap="round" stroke-linejoin="round" d="M83.489 74.464C82.651 74.178 82.272 72.764 82.445 71.053"></path><path id="Vector_33" stroke="#141414" stroke-linecap="round" stroke-linejoin="round" d="M86.586 72.507C76.168 69.185 58.938 60.6 52.424 56.813C51.055 56.013 49.665 55.261 48.282 54.495C47.806 54.231 47.235 53.909 46.61 53.526C44.267 52.092 44.387 51.189 47.332 52.31C48.4441 52.7265 49.5967 53.0258 50.771 53.203H50.79C51.1795 53.2687 51.5731 53.3068 51.968 53.317"></path><path id="Vector_34" stroke="#141414" stroke-linecap="round" stroke-linejoin="round" d="M152.25 48.149C150.37 47.989 150.331 45.714 152.155 45.736C153.504 45.753 154.473 45.812 155.537 45.869C157.342 45.969 157.304 48.369 155.822 48.415C154.628 48.386 153.435 48.2972 152.25 48.149V48.149Z"></path><path id="Vector_35" stroke="#141414" stroke-linecap="round" stroke-linejoin="round" d="M153.656 40.53C154.321 40.511 154.796 40.521 155.442 40.511C157.152 40.486 157.209 42.911 155.803 43.038C155.075 43.0865 154.346 43.0865 153.618 43.038"></path><path id="Vector_36" stroke="#141414" stroke-linecap="round" stroke-linejoin="round" d="M151.794 50.733C149.989 50.526 149.989 48.32 151.756 48.396C153.067 48.453 153.997 48.537 155.024 48.624C156.752 48.77 156.677 51.094 155.252 51.094C154.378 51.094 153.466 50.925 151.794 50.733Z"></path><path id="Vector_37" stroke="#141414" stroke-linecap="round" stroke-linejoin="round" d="M153.6 43.1C154.3 43.119 154.892 43.175 155.576 43.195C157.4 43.249 157.438 45.684 155.918 45.779C155.006 45.836 154.037 45.7 152.289 45.608C152.027 45.6127 151.77 45.5325 151.557 45.3793C151.344 45.2261 151.187 45.0082 151.108 44.7581C151.029 44.508 151.034 44.2391 151.12 43.9916C151.207 43.7441 151.371 43.5313 151.589 43.385"></path><path id="Vector_38" stroke="#141414" stroke-linecap="round" stroke-linejoin="round" d="M118.468 59.321C132.528 52.006 149.134 39.043 151.376 39.2C154.017 39.385 153.782 39.5 153.542 44.026C153.483 45.126 151.566 45.242 151.224 41.726C151.509 44.426 150.274 46.267 148.45 46.856"></path><path id="Vector_39" stroke="#141414" stroke-linecap="round" stroke-linejoin="round" d="M154.91 51.075C152.516 51.303 149.476 51.265 145.505 54.175C138.731 59.1466 131.67 63.7146 124.358 67.855"></path><path id="Vector_40" stroke="#141414" stroke-linecap="round" stroke-linejoin="round" d="M93.1 77.65C93.784 77.859 94.417 78.017 95.044 78.188L93.882 79.8"></path><path id="Vector_41" stroke="#141414" stroke-linecap="round" stroke-linejoin="round" d="M93.1 77.65C94.0847 80.1962 94.7889 82.8421 95.2 85.541C98.563 89.018 106.847 91.792 110.1 89.854C112.038 83.454 114.47 81.285 114.774 76.706C118.422 74.863 122.393 72.678 124.692 70.588C124.692 66.37 122.127 61.388 118.479 59.321C115.446 61.1719 112.319 62.8652 109.112 64.394C107.972 64.889 107.478 65.04 106.912 64.831C104.993 65.8 102.276 65.553 99.844 64.774C99.4693 64.8903 99.0736 64.9227 98.685 64.869C95.1139 64.3859 91.6003 63.5457 88.197 62.361C91.37 63.613 86.939 75.323 83.504 74.461C86.723 75.663 89.943 76.718 93.1 77.65Z"></path><path id="Vector_42" stroke="#141414" stroke-linecap="round" stroke-linejoin="round" d="M106.9 64.831C106.547 64.6955 106.242 64.4594 106.023 64.152C105.803 63.8446 105.679 63.4795 105.665 63.102C105.715 62.7235 105.816 62.3535 105.965 62.002C109.959 62.624 109.602 56.585 107.846 52.464C106.136 49.158 103.38 50.102 102.83 53.68C102.743 54.246 102.23 54.023 101.823 53.699C100.417 52.73 99.448 55.199 101.538 55.899C101.811 57.4233 101.957 58.9676 101.975 60.516C101.965 62.454 101.652 64.216 99.828 64.772"></path><path id="Vector_43" stroke="#141414" stroke-linecap="round" stroke-linejoin="round" d="M81.646 195V175.886H120.254V195"></path><path id="Vector_44" stroke="#141414" stroke-linecap="round" stroke-linejoin="round" d="M43.038 195V185.443H81.646V195"></path><path id="Vector_45" stroke="#141414" stroke-linecap="round" stroke-linejoin="round" d="M120.254 195V180.94H158.881V195"></path><path id="Vector_46" stroke="#141414" stroke-linecap="round" stroke-linejoin="round" d="M107.847 8.762V31.847C123.104 37.395 138.361 26.299 153.618 31.847V8.762C138.361 3.214 123.1 14.31 107.847 8.762Z"></path><path id="Vector_47" stroke="#141414" stroke-linecap="round" stroke-linejoin="round" d="M148.07 177.254V180.94H133.345V177.254H148.07Z"></path><path id="Vector_48" stroke="#141414" stroke-linecap="round" stroke-linejoin="round" d="M130.324 144.289C130.329 146.715 131.18 149.063 132.73 150.929C134.28 152.795 136.433 154.062 138.817 154.511V177.254H142.636V154.511C145.023 154.068 147.18 152.804 148.731 150.936C150.283 149.069 151.131 146.717 151.129 144.289H130.324Z"></path><path id="Vector_49" stroke="#141414" stroke-linecap="round" stroke-linejoin="round" d="M133.193 151.452C131.245 151.528 129.313 151.071 127.606 150.13C125.898 149.189 124.48 147.8 123.503 146.113H130.5"></path><path id="Vector_50" stroke="#141414" stroke-linecap="round" stroke-linejoin="round" d="M148.317 151.452C150.265 151.528 152.197 151.071 153.904 150.13C155.612 149.189 157.03 147.8 158.007 146.113H151.034"></path><path id="Vector_51" stroke="#141414" stroke-linecap="round" stroke-linejoin="round" d="M139.957 95.953C139.957 96.6144 139.761 97.2609 139.393 97.8108C139.026 98.3608 138.504 98.7894 137.893 99.0425C137.282 99.2956 136.609 99.3618 135.961 99.2327C135.312 99.1037 134.716 98.7852 134.248 98.3176C133.781 97.8499 133.462 97.2541 133.333 96.6054C133.204 95.9567 133.27 95.2844 133.524 94.6733C133.777 94.0623 134.205 93.54 134.755 93.1726C135.305 92.8051 135.952 92.609 136.613 92.609C137.499 92.6103 138.349 92.9631 138.976 93.5899C139.603 94.2167 139.956 95.0665 139.957 95.953Z"></path><path id="Vector_52" stroke="#141414" stroke-linecap="round" stroke-linejoin="round" d="M142.685 149.592C142.685 149.979 142.57 150.358 142.355 150.68C142.14 151.002 141.834 151.253 141.476 151.401C141.118 151.549 140.724 151.588 140.344 151.513C139.965 151.437 139.616 151.251 139.342 150.977C139.068 150.703 138.881 150.354 138.806 149.974C138.73 149.594 138.769 149.2 138.917 148.843C139.065 148.485 139.316 148.179 139.638 147.964C139.961 147.748 140.339 147.634 140.726 147.634C141.246 147.634 141.743 147.841 142.11 148.208C142.477 148.575 142.684 149.073 142.685 149.592Z"></path><path id="Vector_53" stroke="#141414" stroke-linecap="round" stroke-linejoin="round" d="M76.772 28.864V35.685"></path><path id="Vector_54" stroke="#141414" stroke-linecap="round" stroke-linejoin="round" d="M80.183 32.275H73.343"></path><path id="Vector_55" stroke="#141414" stroke-linecap="round" stroke-linejoin="round" d="M61.449 129.241L59.093 134.494H63.387L61.031 139.748"></path><path id="Vector_56" stroke="#141414" stroke-linecap="round" stroke-linejoin="round" d="M65.5 89.4L77.01 102.983C79.062 105.491 80.677 105.396 82.501 103.002C85.901 98.537 92.115 90.728 97.301 87.232"></path><path id="Vector_57" stroke="#141414" stroke-linecap="round" stroke-linejoin="round" d="M63.938 90.367L76.649 105.016C77.062 105.495 77.5779 105.875 78.1582 106.127C78.7385 106.379 79.3681 106.496 80.0002 106.471C80.6323 106.445 81.2504 106.277 81.8085 105.979C82.3665 105.681 82.8501 105.261 83.223 104.75C86.906 99.713 93.274 91.64 98.651 88.03"></path><path id="Vector_58" stroke="#141414" stroke-linecap="round" stroke-linejoin="round" d="M99.202 106.346L95.63 156.145"></path><path id="Vector_59" stroke="#141414" stroke-linecap="round" stroke-linejoin="round" d="M66.066 185.367H56.414L56.87 182.403H65.61L66.066 185.367Z"></path><path id="Vector_60" stroke="#141414" stroke-linecap="round" stroke-linejoin="round" d="M57.326 170.908C54.837 170.908 49.118 167.821 49.118 159.651H54.647"></path><path id="Vector_61" stroke="#141414" stroke-linecap="round" stroke-linejoin="round" d="M62.779 164.562L63.615 167.336L61.24 165.683L58.865 167.336L59.701 164.562L57.383 162.814L60.29 162.738L61.24 160.002L62.19 162.738L65.097 162.814L62.779 164.562Z"></path><path id="Vector_62" stroke="#141414" stroke-linecap="round" stroke-linejoin="round" d="M65.61 182.4C62.589 181.336 62.19 180.253 62.171 177.194C62.2651 175.996 62.6569 174.84 63.311 173.831C66.02 169.743 67.871 166.511 67.871 157.396H54.609C54.609 166.096 56.272 169.196 59.074 173.66C59.7864 174.712 60.2181 175.928 60.328 177.194C60.264 180.253 59.928 181.336 56.889 182.4H65.61Z"></path><path id="Vector_63" stroke="#141414" stroke-linecap="round" stroke-linejoin="round" d="M65.23 170.908C67.738 170.908 73.343 167.808 73.343 159.641H67.833"></path><path id="Vector_64" stroke="#141414" stroke-linecap="round" stroke-linejoin="round" d="M173.796 195H26.204"></path><path id="Vector_65" stroke="#141414" d="M106.574 77.675C105.992 77.675 105.422 77.8478 104.938 78.1714C104.454 78.495 104.076 78.9549 103.853 79.493C103.63 80.0312 103.572 80.6233 103.686 81.1946C103.799 81.7659 104.08 82.2906 104.492 82.7025C104.903 83.1143 105.428 83.3948 105.999 83.5085C106.571 83.6221 107.163 83.5638 107.701 83.3409C108.239 83.118 108.699 82.7405 109.023 82.2562C109.346 81.7719 109.519 81.2025 109.519 80.62C109.518 79.8392 109.208 79.0906 108.656 78.5385C108.103 77.9864 107.355 77.6758 106.574 77.675V77.675Z"></path></g></g></svg>