<svg xmlns="http://www.w3.org/2000/svg" fill="none" viewBox="0 0 200 200" stroke-width=".75" height="400" width="400"><g id="Interface-Success-01"><g id="color 2"><path id="Vector" fill="#ff3e13" d="M143.187 136.879C135.767 136.479 122.924 136.202 120.387 135.967C119.082 129.985 116.98 120.512 116.147 116.067C116.161 116.058 116.175 116.049 116.188 116.039C121.337 112.714 125.954 103.613 118.563 90.788C108.714 90.871 99.679 93.081 91.355 98.198C91.564 100.079 91.735 101.675 91.83 102.72C68.175 113.42 63.615 116.571 62.741 121.872C61.726 128.063 67.121 136.902 82.9 162.95C88.9 164.35 98.039 160.92 100.152 155.464C97.738 150.587 89.362 133.71 86.719 128.997C93.842 126.397 102.119 123.172 108.947 119.886C106.155 122.572 100.606 128.224 98.594 130.612C101.52 139.542 104.94 149.912 108.645 151.626C112.972 153.626 114.966 154.21 143.168 154.21C146.405 151.307 145.68 141.084 143.187 136.879Z"></path><path id="Vector_2" fill="#ff3e13" d="M54.077 27.819C53.298 29.244 52.595 30.631 51.949 31.942C46.838 42.487 45.831 49.46 45.849 54.666C45.868 57.231 46.115 59.359 46.249 61.297V61.316C46.61 61.525 46.949 61.734 47.37 61.981C48.13 60.781 48.757 61.012 50.619 61.924C53.184 63.178 53.431 63.292 53.619 65.097C53.638 65.325 53.657 65.534 53.695 65.743C55.481 64.736 57.514 63.729 59.832 62.243C64.221 59.412 69.503 54.776 75.526 44.725C76.286 43.452 77.065 42.125 77.844 40.678L54.077 27.819ZM61.753 48.624L60.537 54.4L57.9 49.118L52.048 49.783L56.248 45.622L53.816 40.245L59.06 42.945L63.411 38.993L62.461 44.826L67.591 47.733L61.753 48.624Z"></path></g><g id="color 1"><path id="Vector_3" fill="#1f00f3" d="M152.307 19.991C152.288 20.941 152.288 21.853 152.307 22.651C153.58 22.271 154.169 21.815 154.264 21.359C154.438 20.539 152.843 19.884 152.307 19.991Z"></path><path id="Vector_4" fill="#1f00f3" d="M145.79 138.437C145.188 138.422 144.587 138.453 143.99 138.532C145.662 142.674 145.757 149.096 144.39 152.44C146.59 155.385 153.09 159.831 158.146 161.18C157.779 153.238 149.286 141.667 145.79 138.437Z"></path><path id="Vector_5" fill="#1f00f3" d="M141.135 20.4089C140.81 20.3999 139.535 20.6529 139.535 21.5299C139.535 22.0049 140.124 22.5369 141.568 22.8979C141.724 22.0432 141.57 21.1609 141.135 20.4089V20.4089Z"></path><path id="Vector_6" fill="#1f00f3" d="M119.456 73.3999C119.722 77.3329 120.14 82.0259 120.14 85.2749C121.584 80.2019 123.351 74.0649 124.377 70.6639L119.456 73.3999Z"></path><path id="Vector_7" fill="#1f00f3" d="M111.913 35.4C111.913 34.108 110.241 33.671 109.348 35.077C109.272 33.861 107.296 33.577 106.327 35.229C106.118 33.918 103.895 34.203 103.116 35.685C102.888 34.526 100.988 35.172 100.665 36.901C100.323 38.725 100.019 40.378 99.81 41.86C102.265 41.1382 104.813 40.7797 107.372 40.796C106.84 42.81 107.072 45.527 107.942 43.684C108.797 41.841 110.982 43.228 109.442 45.641C109.194 46.1405 109.092 46.7003 109.149 47.2553C109.207 47.8102 109.42 48.3375 109.765 48.776C109.993 44.805 113.071 39.656 114.021 37.566C115.314 34.735 113.357 33.975 111.913 35.4Z"></path><path id="Vector_8" fill="#1f00f3" d="M96.789 125.156C97.359 126.847 97.967 128.69 98.589 130.609C100.831 127.949 107.31 121.66 109.647 119.551C105.567 121.546 101.1 123.465 96.789 125.156Z"></path><path id="Vector_9" fill="#1f00f3" d="M103.9 52.386C103.885 53.2524 103.802 54.1164 103.653 54.97C104.968 54.0433 105.99 52.7594 106.598 51.27C105.729 51.7116 104.827 52.0847 103.9 52.386V52.386Z"></path><path id="Vector_10" fill="#1f00f3" d="M99.259 157.152C100.164 157.854 100.992 158.65 101.729 159.527C97.321 169.977 87.878 178.774 84.154 181.111C84.5259 174.975 85.7933 168.926 87.916 163.156C92.191 162.586 97 160.42 99.259 157.152Z"></path><path id="Vector_11" fill="#1f00f3" d="M89.208 79.9C87.251 82.256 81.817 88.089 76.725 91.452C81.2392 89.9937 85.6508 88.2347 89.93 86.187C89.664 83.945 89.417 81.779 89.208 79.9Z"></path><path id="Vector_12" fill="#1f00f3" d="M56.281 67.814C55.863 67.567 55.141 67.871 54.609 68.65C55.0466 69.4357 55.7538 70.0364 56.6 70.341C56.908 68.859 56.7 68.061 56.281 67.814Z"></path><path id="Vector_13" fill="#1f00f3" d="M51.664 79.955C50.79 80.943 50.124 81.23 49.688 81.095C49.079 80.907 49.004 79.765 49.365 78.568C50.144 79.024 50.923 79.48 51.664 79.955Z"></path><path id="Vector_14" fill="#1f00f3" d="M37.281 150.597C40.4395 150.597 43 148.036 43 144.878C43 141.719 40.4395 139.159 37.281 139.159C34.1225 139.159 31.562 141.719 31.562 144.878C31.562 148.036 34.1225 150.597 37.281 150.597Z"></path><path id="Vector_15" fill="#1f00f3" d="M46.249 76.7629C46.287 75.0339 47.104 73.1909 48.449 70.6829C48.1693 69.7557 48.0984 68.7781 48.2414 67.8202C48.3844 66.8624 48.7377 65.948 49.276 65.1429C48.9351 65.67 48.5381 66.1585 48.092 66.5999C48.662 67.7589 47.731 69.5259 46.078 68.6899L46.306 69.0509C48.32 70.1909 46.99 72.7749 44.843 71.7509L45.243 72.1119C47.219 73.1569 45.984 75.6839 43.856 74.7529C42.925 74.3349 42.165 74.0309 41.538 73.7649C39.904 75.0759 37.871 75.3799 34.489 74.9049L49.157 82.8469C47.066 80.4679 46.192 78.6819 46.249 76.7629Z"></path><path id="Vector_16" fill="#1f00f3" d="M33.998 74.6455L30.426 79.3195L47.697 88.6865L49.673 83.1385L33.998 74.6455Z"></path></g><g id="outlines"><path id="Vector_17" stroke="#1f1f2e" stroke-linecap="round" stroke-linejoin="round" d="M51.664 79.955C49.864 78.777 47.788 77.732 46.23 76.725"></path><path id="Vector_18" stroke="#1f1f2e" stroke-linecap="round" stroke-linejoin="round" d="M99.734 42.468L96.162 5L68.536 74.274"></path><path id="Vector_19" stroke="#1f1f2e" stroke-linecap="round" stroke-linejoin="round" d="M101.425 60.366L100.665 52.215"></path><path id="Vector_20" stroke="#1f1f2e" stroke-linecap="round" stroke-linejoin="round" d="M141.382 136.784L167.355 71.652L121.736 79.708"></path><path id="Vector_21" stroke="#1f1f2e" stroke-linecap="round" stroke-linejoin="round" d="M114.212 153.352L118.183 195L134.466 154.169"></path><path id="Vector_22" stroke="#1f1f2e" stroke-linecap="round" stroke-linejoin="round" d="M62.76 88.752L46.971 128.348L62.779 125.555"></path><path id="Vector_23" stroke="#1f1f2e" stroke-linecap="round" stroke-linejoin="round" d="M51.968 31.98L42.088 26.641C34.188 41.233 41.404 52.291 45.869 54.704"></path><path id="Vector_24" stroke="#1f1f2e" stroke-linecap="round" stroke-linejoin="round" d="M57.915 49.137L52.063 49.783L56.243 45.641L53.811 40.264L59.055 42.962L63.406 38.991L62.456 44.805L67.586 47.731L61.753 48.624L60.575 54.4L57.915 49.137Z"></path><path id="Vector_25" stroke="#1f1f2e" stroke-linecap="round" stroke-linejoin="round" d="M75.5938 44.75L85.408 50.0869C77.5 64.6789 64.3 64.6789 59.853 62.2659"></path><path id="Vector_26" stroke="#1f1f2e" stroke-linecap="round" stroke-linejoin="round" d="M45.134 166.636C51.3245 166.636 56.343 161.618 56.343 155.427C56.343 149.236 51.3245 144.218 45.134 144.218C38.9434 144.218 33.925 149.236 33.925 155.427C33.925 161.618 38.9434 166.636 45.134 166.636Z"></path><path id="Vector_27" stroke="#1f1f2e" stroke-linecap="round" stroke-linejoin="round" d="M167.393 44.121C169.303 44.121 170.851 42.5728 170.851 40.663C170.851 38.7532 169.303 37.205 167.393 37.205C165.483 37.205 163.935 38.7532 163.935 40.663C163.935 42.5728 165.483 44.121 167.393 44.121Z"></path><path id="Vector_28" stroke="#1f1f2e" stroke-linecap="round" stroke-linejoin="round" d="M33.101 101.71C34.0769 101.71 34.868 100.919 34.868 99.943C34.868 98.9671 34.0769 98.176 33.101 98.176C32.1251 98.176 31.334 98.9671 31.334 99.943C31.334 100.919 32.1251 101.71 33.101 101.71Z"></path><path id="Vector_29" stroke="#1f1f2e" stroke-linecap="round" stroke-linejoin="round" d="M123.465 14.918L121.698 21.986L127.056 21.036L125.289 28.104"></path><path id="Vector_30" stroke="#1f1f2e" stroke-linecap="round" stroke-linejoin="round" d="M44.824 71.728C46.974 72.748 48.299 70.173 46.287 69.028C44.787 68.175 43.703 67.64 42.487 67.014C42.1247 66.8048 41.6957 66.7434 41.2893 66.8426C40.8829 66.9418 40.5303 67.1938 40.3051 67.5464C40.0799 67.8989 39.9993 68.3247 40.0801 68.7352C40.1609 69.1457 40.3969 69.5091 40.739 69.75C41.707 70.361 42.851 70.792 44.824 71.728Z"></path><path id="Vector_31" stroke="#1f1f2e" stroke-linecap="round" stroke-linejoin="round" d="M47.389 62C46.629 61.544 46.08 61.236 45.337 60.8C44.9864 60.571 44.5605 60.4875 44.1494 60.5672C43.7384 60.6468 43.3745 60.8834 43.1349 61.2268C42.8953 61.5702 42.7987 61.9933 42.8658 62.4067C42.9328 62.82 43.1581 63.1909 43.494 63.441C44.3066 63.9833 45.1575 64.4659 46.04 64.885"></path><path id="Vector_32" stroke="#1f1f2e" stroke-linecap="round" stroke-linejoin="round" d="M43.874 74.749C45.983 75.68 47.217 73.156 45.242 72.108C43.778 71.331 42.693 70.841 41.518 70.284C41.1635 70.0848 40.7455 70.031 40.352 70.1338C39.9585 70.2366 39.6203 70.4881 39.4086 70.8352C39.1968 71.1824 39.128 71.5982 39.2167 71.9951C39.3054 72.392 39.5446 72.739 39.884 72.963C40.834 73.513 41.936 73.894 43.874 74.749Z"></path><path id="Vector_33" stroke="#1f1f2e" stroke-linecap="round" stroke-linejoin="round" d="M46 64.964C45.221 64.546 44.533 64.231 43.777 63.824C43.4142 63.5988 42.978 63.5235 42.5607 63.6141C42.1434 63.7046 41.7776 63.9539 41.5407 64.3092C41.3039 64.6645 41.2145 65.098 41.2914 65.518C41.3683 65.9381 41.6056 66.3117 41.953 66.56C42.94 67.208 44.066 67.673 46.053 68.669C47.709 69.498 48.637 67.738 48.067 66.579"></path><path id="Vector_34" stroke="#1f1f2e" stroke-linecap="round" stroke-linejoin="round" d="M54.59 68.65C55.141 67.871 55.859 67.574 56.281 67.814C57.034 68.244 57.097 70.436 54.761 75.053C52.271 79.974 50.523 81.365 49.669 81.095C49.079 80.908 48.985 79.746 49.346 78.568"></path><path id="Vector_35" stroke="#1f1f2e" stroke-linecap="round" stroke-linejoin="round" d="M56.6 70.3411C55.308 69.8091 54 68.8601 53.636 65.0971C53.459 63.2971 53.2 63.1761 50.636 61.9241C47.636 60.4591 47.805 60.724 45.544 66.047C44.988 67.356 47.026 68.707 49.382 64.907C47.539 67.814 47.882 70.707 49.572 72.545"></path><path id="Vector_36" stroke="#1f1f2e" stroke-linecap="round" stroke-linejoin="round" d="M148.6 12.733C148.412 15.108 145.531 15.184 145.541 12.885C145.548 11.175 145.621 9.95896 145.693 8.59096C145.813 6.31096 148.854 6.32996 148.923 8.21096C148.967 9.35096 148.775 10.548 148.6 12.733Z"></path><path id="Vector_37" stroke="#1f1f2e" stroke-linecap="round" stroke-linejoin="round" d="M138.931 10.987C138.912 10.151 138.925 9.54095 138.912 8.74295C138.877 6.57695 141.963 6.47895 142.104 8.28695C142.169 9.21049 142.169 10.1374 142.104 11.061"></path><path id="Vector_38" stroke="#1f1f2e" stroke-linecap="round" stroke-linejoin="round" d="M151.87 13.284C151.632 15.603 148.839 15.602 148.925 13.36C148.989 11.707 149.093 10.529 149.191 9.218C149.356 7.018 152.307 7.109 152.307 8.918C152.307 10.016 152.087 11.176 151.87 13.284Z"></path><path id="Vector_39" stroke="#1f1f2e" stroke-linecap="round" stroke-linejoin="round" d="M142.18 11.0421C142.199 10.1491 142.274 9.38905 142.294 8.53405C142.348 6.21605 145.443 6.17805 145.562 8.07805C145.635 9.23705 145.467 10.4531 145.353 12.6781C145.36 13.0099 145.261 13.3353 145.069 13.606C144.876 13.8767 144.602 14.0782 144.286 14.1806C143.971 14.283 143.63 14.2808 143.316 14.1745C143.001 14.0681 142.73 13.8631 142.541 13.5901"></path><path id="Vector_40" stroke="#1f1f2e" stroke-linecap="round" stroke-linejoin="round" d="M141.116 20.409C140.166 20.561 139.558 21.017 139.558 21.492C139.558 22.347 141.401 23.37 146.55 23.278C152.022 23.178 154.095 22.214 154.283 21.34C154.418 20.713 153.618 20.14 152.421 19.953"></path><path id="Vector_41" stroke="#1f1f2e" stroke-linecap="round" stroke-linejoin="round" d="M141.591 22.879C141.762 21.492 141.584 19.925 138.532 17.958C137.066 17.013 137.087 16.723 137.278 13.892C137.504 10.548 137.64 10.83 143.358 11.118C144.764 11.189 144.916 13.607 140.47 14.063C143.89 13.683 146.227 15.241 146.97 17.54"></path><path id="Vector_42" stroke="#1f1f2e" stroke-linecap="round" stroke-linejoin="round" d="M152.326 22.632C152.212 18.718 152.626 12.41 152.326 9.37"></path><path id="Vector_43" stroke="#1f1f2e" stroke-linecap="round" stroke-linejoin="round" d="M139.558 21.511C139.596 26.261 139.558 38.421 139.235 44.102C137.735 45.09 125.898 51.002 120.824 53.355C116.231 55.486 112.348 55.045 110.539 52.149C108.039 48.149 112.308 41.422 114.039 37.566C115.312 34.735 113.374 33.975 111.93 35.4C111.93 34.127 110.258 33.671 109.365 35.077C109.27 33.861 107.294 33.577 106.344 35.229C106.116 33.937 103.912 34.222 103.133 35.685C102.905 34.545 101.018 35.185 100.682 36.901C97.665 52.262 99.482 54.801 106.629 51.265C106.021 52.7543 104.999 54.0383 103.684 54.965"></path><path id="Vector_44" stroke="#1f1f2e" stroke-linecap="round" stroke-linejoin="round" d="M154.283 21.359C154.283 48.13 154.574 49.444 153.162 52.082C151.289 55.582 147.595 57.763 119.456 73.4C119.741 77.333 120.14 82.026 120.14 85.275"></path><path id="Vector_45" stroke="#1f1f2e" stroke-linecap="round" stroke-linejoin="round" d="M56.281 67.8139C62.551 71.5759 71.063 75.4519 72.127 75.9459C76.877 74.0079 92.588 66.9179 99.027 62.6839C102.788 60.2119 103.872 55.1029 103.891 52.3669"></path><path id="Vector_46" stroke="#1f1f2e" stroke-linecap="round" stroke-linejoin="round" d="M99.031 62.7C101.52 65.322 111.153 63.5 113.642 54.473"></path><path id="Vector_47" stroke="#1f1f2e" stroke-linecap="round" stroke-linejoin="round" d="M99.81 41.86C102.266 41.1419 104.813 40.7835 107.372 40.796C106.84 42.829 107.072 45.565 107.942 43.684C108.812 41.803 110.991 43.253 109.442 45.641C109.19 46.1396 109.086 46.7001 109.144 47.2558C109.201 47.8116 109.417 48.3392 109.765 48.776"></path><path id="Vector_48" stroke="#1f1f2e" stroke-linecap="round" stroke-linejoin="round" d="M83.812 130.039C92.4 126.961 106.464 121.761 115.789 116.302C121.073 113.209 126.163 103.952 118.582 90.7851C120.007 85.7851 122.933 75.4711 124.382 70.6641"></path><path id="Vector_49" stroke="#1f1f2e" stroke-linecap="round" stroke-linejoin="round" d="M101.159 98.5179C69.315 112.692 63.736 115.923 62.741 121.869C61.892 126.943 64.052 132.034 82.9 162.969C88.144 164.394 97.986 161.221 100.152 155.469C94.49 143.969 88.6 132.369 86.719 129.002"></path><path id="Vector_50" stroke="#1f1f2e" stroke-linecap="round" stroke-linejoin="round" d="M96.808 125.156C100.076 134.694 104.161 149.533 108.664 151.623C113.167 153.713 114.915 154.131 143.164 154.207C145.995 152.041 146.09 141.534 143.164 136.86C135.664 136.442 123.081 136.195 120.402 135.948C119.091 129.868 117.002 120.348 116.202 116.017"></path><path id="Vector_51" stroke="#1f1f2e" stroke-linecap="round" stroke-linejoin="round" d="M99.259 157.152C100.604 158.267 101.827 159.522 102.907 160.895C100.627 167.26 91.607 179.306 84.192 183.885C83.755 178.964 85.579 169.008 87.897 163.156"></path><path id="Vector_52" stroke="#1f1f2e" stroke-linecap="round" stroke-linejoin="round" d="M137.278 136.613C139.786 139.425 141.021 149.02 136.898 154.188"></path><path id="Vector_53" stroke="#1f1f2e" stroke-linecap="round" stroke-linejoin="round" d="M79.48 157.342C85.256 158.615 94.38 156.297 97.302 149.704"></path><path id="Vector_54" stroke="#1f1f2e" stroke-linecap="round" stroke-linejoin="round" d="M84.116 181.111C87.802 178.793 97.302 169.977 101.71 159.511"></path><path id="Vector_55" stroke="#1f1f2e" stroke-linecap="round" stroke-linejoin="round" d="M143.985 138.513C145.127 138.38 146.282 138.38 147.424 138.513C150.635 141.113 159.603 151.87 159.717 161.503C154.549 160.803 146.854 155.708 144.384 152.421"></path><path id="Vector_56" stroke="#1f1f2e" stroke-linecap="round" stroke-linejoin="round" d="M145.79 138.437C149.29 141.667 157.76 153.237 158.14 161.18"></path><path id="Vector_57" stroke="#1f1f2e" stroke-linecap="round" stroke-linejoin="round" d="M88.809 75.946C89.303 81.855 91.409 97.872 91.809 102.698"></path><path id="Vector_58" stroke="#1f1f2e" stroke-linecap="round" stroke-linejoin="round" d="M118.582 90.785C107.828 90.861 98.974 93.521 91.355 98.195"></path><path id="Vector_59" stroke="#1f1f2e" stroke-linecap="round" stroke-linejoin="round" d="M90.956 155.841C86.814 147.804 78.226 129.469 76.383 125.631C84.971 121.299 106.802 112.217 110.564 109.88C114.326 107.543 115.808 104.541 111.818 91.203"></path><path id="Vector_60" stroke="#1f1f2e" stroke-linecap="round" stroke-linejoin="round" d="M49.688 81.1C67.681 91.982 70.57 93.162 75.072 91.925C80.1691 90.4098 85.1375 88.4911 89.93 86.187"></path><path id="Vector_61" stroke="#1f1f2e" stroke-linecap="round" stroke-linejoin="round" d="M76.725 91.45C81.8 88.087 87.251 82.235 89.208 79.9"></path><path id="Vector_62" stroke="#1f1f2e" stroke-linecap="round" stroke-linejoin="round" d="M98.613 130.609C100.855 127.949 107.334 121.679 109.671 119.551"></path><path id="Vector_63" stroke="#1f1f2e" stroke-linecap="round" stroke-linejoin="round" d="M26.337 47.142L26.996 50.867"></path><path id="Vector_64" stroke="#1f1f2e" stroke-linecap="round" stroke-linejoin="round" d="M34.867 53.109L31.142 53.768"></path><path id="Vector_65" stroke="#1f1f2e" stroke-linecap="round" stroke-linejoin="round" d="M28.9 61.6391L28.241 57.9141"></path><path id="Vector_66" stroke="#1f1f2e" stroke-linecap="round" stroke-linejoin="round" d="M20.37 55.6719L24.097 55.0129"></path><path id="Vector_67" stroke="#1f1f2e" stroke-linecap="round" stroke-linejoin="round" d="M31.142 53.7679C30.6795 53.8498 30.2054 53.8397 29.7468 53.7381C29.2883 53.6366 28.8542 53.4457 28.4695 53.1762C28.0848 52.9068 27.757 52.5641 27.5049 52.1679C27.2527 51.7716 27.0811 51.3296 27 50.8669C27.0826 51.3297 27.073 51.8041 26.9719 52.2632C26.8707 52.7222 26.68 53.1567 26.4106 53.5419C26.1412 53.9271 25.7984 54.2553 25.4019 54.5077C25.0054 54.7601 24.563 54.9318 24.1 55.0129C24.5626 54.9305 25.0369 54.9402 25.4957 55.0414C25.9546 55.1426 26.3889 55.3334 26.7739 55.6028C27.1589 55.8722 27.4869 56.215 27.7392 56.6114C27.9914 57.0078 28.163 57.4501 28.244 57.9129C28.1617 57.4504 28.1714 56.9763 28.2725 56.5175C28.3736 56.0588 28.5642 55.6245 28.8334 55.2395C29.1026 54.8545 29.445 54.5263 29.8412 54.2738C30.2373 54.0213 30.6793 53.8494 31.142 53.7679V53.7679Z"></path><path id="Vector_68" stroke="#1f1f2e" stroke-linecap="round" stroke-linejoin="round" d="M167.374 103.534L168.318 108.876"></path><path id="Vector_69" stroke="#1f1f2e" stroke-linecap="round" stroke-linejoin="round" d="M179.605 112.091L174.263 113.035"></path><path id="Vector_70" stroke="#1f1f2e" stroke-linecap="round" stroke-linejoin="round" d="M171.049 124.322L170.104 118.98"></path><path id="Vector_71" stroke="#1f1f2e" stroke-linecap="round" stroke-linejoin="round" d="M158.817 115.765L164.162 114.821"></path><path id="Vector_72" stroke="#1f1f2e" stroke-linecap="round" stroke-linejoin="round" d="M174.263 113.035C173.599 113.153 172.919 113.139 172.261 112.994C171.603 112.849 170.98 112.575 170.428 112.189C169.875 111.803 169.405 111.311 169.043 110.743C168.681 110.174 168.434 109.54 168.318 108.876C168.436 109.539 168.423 110.219 168.278 110.878C168.133 111.536 167.86 112.159 167.474 112.711C167.088 113.263 166.596 113.734 166.028 114.096C165.46 114.458 164.826 114.704 164.162 114.821C164.825 114.703 165.506 114.717 166.163 114.862C166.821 115.007 167.444 115.281 167.996 115.667C168.548 116.053 169.019 116.545 169.38 117.113C169.742 117.682 169.988 118.316 170.104 118.98C169.986 118.316 170 117.636 170.145 116.978C170.29 116.32 170.564 115.697 170.95 115.145C171.336 114.592 171.828 114.122 172.396 113.76C172.965 113.398 173.599 113.151 174.263 113.035V113.035Z"></path><path id="Vector_73" stroke="#1f1f2e" stroke-linejoin="round" d="M54.077 27.819C53.298 29.244 52.595 30.631 51.949 31.942C46.838 42.487 45.831 49.46 45.849 54.666C45.868 57.231 46.115 59.359 46.249 61.297V61.316C46.61 61.525 46.949 61.734 47.37 61.981C48.13 60.781 48.757 61.012 50.619 61.924C53.184 63.178 53.431 63.292 53.619 65.097C53.638 65.325 53.657 65.534 53.695 65.743C55.481 64.736 57.514 63.729 59.832 62.243C64.221 59.412 69.503 54.776 75.526 44.725C76.286 43.452 77.065 42.125 77.844 40.678L54.077 27.819ZM61.753 48.624L60.537 54.4L57.9 49.118L52.048 49.783L56.248 45.622L53.816 40.245L59.06 42.945L63.411 38.993L62.461 44.826L67.591 47.733L61.753 48.624Z"></path><path id="Vector_74" stroke="#1f1f2e" stroke-linejoin="round" d="M46.249 76.7629C46.287 75.0339 47.104 73.1909 48.449 70.6829C48.1693 69.7557 48.0984 68.7781 48.2414 67.8202C48.3844 66.8624 48.7377 65.948 49.276 65.1429C48.9351 65.67 48.5381 66.1585 48.092 66.5999C48.662 67.7589 47.731 69.5259 46.078 68.6899L46.306 69.0509C48.32 70.1909 46.99 72.7749 44.843 71.7509L45.243 72.1119C47.219 73.1569 45.984 75.6839 43.856 74.7529C42.925 74.3349 42.165 74.0309 41.538 73.7649C39.904 75.0759 37.871 75.3799 34.489 74.9049L49.157 82.8469C47.066 80.4679 46.192 78.6819 46.249 76.7629Z"></path><path id="Vector_75" stroke="#1f1f2e" stroke-linejoin="round" d="M34.013 74.6455L30.441 79.3195L47.712 88.6865L49.688 83.1385L34.013 74.6455Z"></path></g></g></svg>